PathFileType	4	(X/Y/Z)	./resultDataOpenSim/trcMotMarkerGrf/sub10/qtm-15-03.trc
DataRate	CameraRate	NumFrames	NumMarkers	Units	OrigDataRate	OrigDataStartFrame	OrigNumFrames
250.000000	250.000000	14	24	m	250.000000	366	487
Frame#	Time	L.Toe.Tip			R.Toe.Tip			L.Ankle.Lat			R.Ankle.Lat			L.Ankle.Med			R.Ankle.Med			L.Heel			R.Heel			L.Knee.Lat			R.Knee.Lat			L.Knee.Med			R.Knee.Med			L.Thigh.Upper			R.Thigh.Upper			L.ASIS			R.ASIS			V.Sacral			L.Acromium			R.Acromium			C7			L.Elbow			R.Elbow			L.Wrist.Lat			R.Wrist.Lat
		X1	Y1	Z1	X2	Y2	Z2	X3	Y3	Z3	X4	Y4	Z4	X5	Y5	Z5	X6	Y6	Z6	X7	Y7	Z7	X8	Y8	Z8	X9	Y9	Z9	X10	Y10	Z10	X11	Y11	Z11	X12	Y12	Z12	X13	Y13	Z13	X14	Y14	Z14	X15	Y15	Z15	X16	Y16	Z16	X17	Y17	Z17	X18	Y18	Z18	X19	Y19	Z19	X20	Y20	Z20	X21	Y21	Z21	X22	Y22	Z22	X23	Y23	Z23	X24	Y24	Z24

366	1.46	1.0720104	0.068533585	-0.34205567	0.86569348	0.039045526	-0.092888213	0.95714216	0.13798925	-0.33802653	0.72495639	0.066156179	-0.084205762	0.99056853	0.14112949	-0.25789958	0.76319605	0.084872985	-0.16524083	0.89340401	0.11900024	-0.28529517	0.67698612	0.049816849	-0.13811519	1.1364873	0.47281375	-0.32451281	0.94824698	0.38060763	-0.031198367	1.1632762	0.43861218	-0.2099841	0.97959913	0.39593681	-0.15608221	0.91299004	0.76073311	-0.32658036	0.86937994	0.78319098	0.059507365	0.9554634	0.85897896	-0.24964368	0.94106511	0.87355439	-0.0037226294	0.75173748	0.88738798	-0.13802405	0.97382131	1.3339258	-0.2751683	0.91365071	1.3333699	0.038127344	0.86751282	1.3740348	-0.13569818	0.81236392	1.0479422	-0.39492398	0.78777202	1.0018977	0.10290156	0.90477393	0.82743359	-0.45754119	0.93933828	0.84202185	0.21856252
367	1.464	1.0911584	0.067762042	-0.34262719	0.86566051	0.03905151	-0.092875592	0.97403904	0.13333567	-0.33891143	0.7250204	0.066753456	-0.084153933	1.0073483	0.13759343	-0.25866771	0.76354778	0.085310675	-0.16501077	0.91069003	0.11223462	-0.28640105	0.67703869	0.050561319	-0.13812624	1.1422323	0.47477186	-0.32451237	0.94867593	0.3812321	-0.031191232	1.1696191	0.44094869	-0.21011908	0.98049414	0.39604696	-0.15602526	0.91864151	0.76328354	-0.3272676	0.87312014	0.7847935	0.058658144	0.96108203	0.86092654	-0.24996139	0.94545545	0.87495121	-0.004241414	0.75674071	0.88938907	-0.13968494	0.97826672	1.3359405	-0.27594333	0.91882454	1.3350188	0.037701929	0.87220537	1.3758806	-0.13620434	0.81446646	1.0511439	-0.39473202	0.7950325	1.0022737	0.10298254	0.90379852	0.82967694	-0.45816627	0.95180284	0.84304572	0.21275671
368	1.468	1.1102994	0.067042522	-0.34293584	0.86565377	0.039058175	-0.092840816	0.99110961	0.12878498	-0.33977846	0.7250972	0.067364374	-0.084055945	1.0238951	0.13415083	-0.25943608	0.76387869	0.085770269	-0.16476273	0.92811429	0.10569604	-0.28749001	0.67710688	0.051342734	-0.13804394	1.1478633	0.47649531	-0.32455081	0.94910372	0.38190409	-0.031149916	1.175772	0.44309269	-0.21022797	0.98138192	0.39615509	-0.15594394	0.92428416	0.7658007	-0.32792642	0.87688544	0.78640573	0.057802123	0.9667575	0.86286757	-0.25029522	0.94988083	0.87634898	-0.0047711862	0.76155534	0.89143127	-0.14197601	0.98270943	1.3379694	-0.27671719	0.92396046	1.3367112	0.037278031	0.87689811	1.3777171	-0.13670722	0.81662025	1.0543711	-0.39456668	0.80228237	1.0026205	0.10313161	0.90286354	0.83200895	-0.45876373	0.96418037	0.84424026	0.20687868
369	1.472	1.1294117	0.066348569	-0.3429537	0.86565013	0.039061653	-0.092796816	1.0083323	0.12434747	-0.34064324	0.72519845	0.067987613	-0.083904007	1.0403184	0.13083791	-0.26020188	0.76414388	0.086268386	-0.16452933	0.94567196	0.099441755	-0.288629	0.67718609	0.052146142	-0.13789194	1.153349	0.47796066	-0.32461357	0.94953567	0.38262032	-0.031079599	1.1816434	0.44501828	-0.21032351	0.98217775	0.39632104	-0.1558496	0.92988858	0.76827129	-0.32854597	0.88063811	0.78802155	0.056940865	0.97249697	0.86480311	-0.25064707	0.95436408	0.87773174	-0.0053029851	0.76615289	0.89350112	-0.14497558	0.98713687	1.3400152	-0.27749234	0.92909823	1.338434	0.036840856	0.88159605	1.3795345	-0.13720505	0.81883444	1.0576229	-0.39442736	0.80967161	1.0029373	0.10319561	0.9019716	0.83442557	-0.45933419	0.97647902	0.8456179	0.20094518
370	1.476	1.1484781	0.065655795	-0.34266747	0.86561295	0.039056913	-0.092764921	1.0256886	0.12005204	-0.34150116	0.72533183	0.068619396	-0.083695213	1.0568384	0.12771223	-0.26092287	0.76439032	0.08678836	-0.16426509	0.96334656	0.093517457	-0.28984911	0.67727322	0.052957406	-0.13769294	1.1586584	0.47914879	-0.32469478	0.94997925	0.38337823	-0.030979915	1.1872309	0.44671358	-0.21040724	0.98287867	0.39656341	-0.15573062	0.93534959	0.77067418	-0.32910862	0.88439574	0.78964481	0.056065337	0.97828159	0.86673035	-0.25100612	0.95891605	0.87909003	-0.0058378057	0.77072499	0.89555609	-0.14817206	0.99155236	1.3420769	-0.27825713	0.93432346	1.3401733	0.036350564	0.88630287	1.3813282	-0.13769039	0.82111925	1.0608966	-0.39431003	0.81718549	1.003336	0.10306523	0.90119017	0.83691926	-0.45990047	0.98868362	0.8471734	0.19496441
371	1.48	1.1674882	0.064945279	-0.34207232	0.86554337	0.039045222	-0.09274787	1.0431692	0.11593575	-0.34233479	0.72549397	0.069255362	-0.08344072	1.073774	0.1248826	-0.26156148	0.76464276	0.087317353	-0.16395812	0.98110352	0.087966505	-0.29117662	0.67736912	0.053769288	-0.1374609	1.1638025	0.48005134	-0.32478887	0.95044339	0.38417373	-0.030844217	1.1925848	0.44817592	-0.21047497	0.98352528	0.39686604	-0.15557432	0.94063085	0.77299264	-0.3296179	0.88818808	0.79126553	0.055168179	0.98404138	0.86864609	-0.25134257	0.96353111	0.88044249	-0.0063953755	0.77553963	0.89755771	-0.15085951	0.99596643	1.3441498	-0.27899304	0.93975732	1.3419161	0.035756143	0.89101956	1.3831091	-0.13815246	0.82347623	1.0641862	-0.39420882	0.82475617	1.0039425	0.10274514	0.90060567	0.83947984	-0.46048901	1.000764	0.84888857	0.18894186
372	1.484	1.1864295	0.064207447	-0.34115877	0.86548644	0.039034864	-0.092725432	1.0607648	0.11203034	-0.34313214	0.72566801	0.069888933	-0.0831629	1.0911611	0.12242088	-0.26212705	0.76482674	0.087876024	-0.16369246	0.99889786	0.082826931	-0.29263727	0.67747411	0.054580495	-0.13720264	1.1688174	0.48067061	-0.32487558	0.9509377	0.38499715	-0.030667006	1.1977485	0.44940704	-0.21052013	0.98414926	0.39720696	-0.15538052	0.9458465	0.77522454	-0.33010305	0.89201611	0.79285447	0.054260451	0.98971627	0.87054933	-0.25163037	0.9682252	0.88182032	-0.0070063193	0.78068189	0.89950491	-0.15282143	1.0003821	1.3462277	-0.27969486	0.94544088	1.3436652	0.035046716	0.89574225	1.3848903	-0.13858901	0.82589875	1.0674835	-0.39412046	0.83240747	1.0047655	0.10234707	0.90024448	0.84209864	-0.46110346	1.0126949	0.85074509	0.18289068
373	1.488	1.2052752	0.0634503	-0.33990934	0.86547075	0.039032146	-0.092683338	1.0784502	0.10836565	-0.34388983	0.72583678	0.070514131	-0.082878495	1.1085683	0.12026068	-0.26263471	0.76490106	0.088474474	-0.16351448	1.0167027	0.078098067	-0.29419175	0.67758536	0.055390651	-0.13692208	1.1737298	0.48101805	-0.3249206	0.95146454	0.38583443	-0.030448673	1.2027465	0.45041497	-0.21053744	0.98476251	0.39757067	-0.15515861	0.95113323	0.77737725	-0.33058586	0.89586377	0.79438755	0.053385492	0.99533908	0.87244387	-0.25187786	0.97302504	0.88323569	-0.0076819016	0.78604431	0.9014261	-0.15432587	1.0047911	1.3483067	-0.28037675	0.95121493	1.3454447	0.034293306	0.90046416	1.3866714	-0.13900803	0.82837813	1.0707786	-0.39404395	0.84021152	1.0057193	0.10201007	0.90005092	0.84477412	-0.46172438	1.0244662	0.8527321	0.17683176
374	1.492	1.2239846	0.062702485	-0.33830329	0.865478	0.039036275	-0.092628975	1.0961888	0.10496941	-0.3446021	0.7259974	0.071130991	-0.082587425	1.1256066	0.11828833	-0.26307039	0.7649731	0.089071295	-0.1633277	1.0345173	0.073738071	-0.29570755	0.67769862	0.056197139	-0.13662175	1.1785554	0.48111471	-0.32490682	0.95200665	0.38667615	-0.030194537	1.2075888	0.45120951	-0.21052925	0.98536235	0.39795115	-0.15492107	0.95652653	0.77945694	-0.33106191	0.89970868	0.79587893	0.052600238	1.0010131	0.87433775	-0.25212107	0.9778809	0.884686	-0.0083874531	0.79149892	0.9033429	-0.15567864	1.0091818	1.3503894	-0.28105183	0.9568481	1.3472733	0.033585411	0.90518262	1.3884412	-0.13941716	0.83090682	1.0740609	-0.39397894	0.84819499	1.0067241	0.10183482	0.89994374	0.84750667	-0.46233069	1.0360896	0.85484953	0.17077679
375	1.496	1.2425139	0.062004347	-0.33632345	0.86547233	0.039041986	-0.092579165	1.1139476	0.10186594	-0.34525453	0.72615854	0.071740914	-0.082277348	1.1422791	0.11647309	-0.26342299	0.76517175	0.089618796	-0.16301456	1.0523235	0.069726727	-0.29709073	0.67781042	0.05699574	-0.13630379	1.1833115	0.48099398	-0.32487264	0.95253323	0.38752294	-0.029916376	1.2122711	0.45179553	-0.21050293	0.98592871	0.39835189	-0.15468089	0.9619802	0.78146183	-0.33151447	0.90352934	0.7973737	0.051902354	1.0068155	0.87623125	-0.25239123	0.98268186	0.88616787	-0.0090680159	0.7969859	0.9052518	-0.15703584	1.0135519	1.3524798	-0.28171758	0.96228077	1.3491404	0.032933957	0.90990016	1.3901894	-0.13981601	0.83348083	1.0773215	-0.39392575	0.85633128	1.0077253	0.10191819	0.89989029	0.85028579	-0.4629175	1.0476025	0.8571076	0.16470803
376	1.5	1.2608218	0.061396636	-0.33396931	0.86544269	0.039043701	-0.092538884	1.1316903	0.099085688	-0.34582605	0.72632623	0.072343959	-0.081939348	1.1587144	0.11483348	-0.26368356	0.76544784	0.090133793	-0.1626172	1.0700539	0.066107624	-0.29840916	0.67791848	0.057784519	-0.13597396	1.1880193	0.48069474	-0.32489363	0.95302916	0.38837821	-0.029631828	1.2167838	0.45217515	-0.21046925	0.98640811	0.3987805	-0.15446449	0.96743641	0.78338257	-0.33193697	0.90734871	0.79889488	0.051201126	1.0127524	0.87811412	-0.25269695	0.98738476	0.8876702	-0.0097012159	0.80249603	0.90713226	-0.15844402	1.0179079	1.3545753	-0.28236859	0.96760905	1.3510221	0.032295865	0.91462072	1.3919132	-0.14020247	0.83610235	1.0805549	-0.39388222	0.86456422	1.0086666	0.10240495	0.89991344	0.85309167	-0.46349574	1.0590405	0.85951304	0.15860055
377	1.504	1.2788687	0.060916663	-0.33127023	0.86541808	0.039040111	-0.092490528	1.1493571	0.096657746	-0.34629611	0.72649544	0.072942995	-0.081584598	1.1748543	0.11334132	-0.26380952	0.76564653	0.090669185	-0.16227231	1.087617	0.062950228	-0.2998239	0.67802041	0.058566796	-0.13564102	1.1926919	0.48024683	-0.32501628	0.95350601	0.38924016	-0.029354423	1.2211265	0.45235551	-0.21044224	0.98671261	0.39924483	-0.15432447	0.97289653	0.78521329	-0.33235453	0.91121899	0.8004288	0.050409285	1.0187901	0.8799796	-0.25303168	0.99203991	0.88917664	-0.01030175	0.8080357	0.9089611	-0.15988894	1.0222543	1.3566659	-0.28301073	0.97291216	1.3529071	0.031651206	0.9193499	1.3936137	-0.14058168	0.83877706	1.0837565	-0.39384647	0.87282822	1.0095294	0.10337333	0.90004616	0.85590923	-0.46408157	1.0703925	0.86205141	0.15247292
378	1.508	1.2966162	0.060593597	-0.328289	0.86542566	0.039035043	-0.092416501	1.1668676	0.094595416	-0.34665272	0.72665556	0.073537126	-0.081242071	1.1904387	0.11192083	-0.26377355	0.76576254	0.091223778	-0.16198991	1.1049253	0.060298617	-0.30146046	0.67811449	0.059343996	-0.13531267	1.1973225	0.47966907	-0.32523291	0.95397761	0.39010314	-0.029087164	1.225312	0.4523519	-0.21042737	0.98681789	0.39974544	-0.15428483	0.9784269	0.78695734	-0.33281426	0.91513835	0.80195719	0.049527826	1.0248964	0.88182693	-0.25338676	0.99670478	0.89068118	-0.010889061	0.81361073	0.91072467	-0.1613381	1.0265927	1.3587383	-0.28365428	0.97821407	1.354794	0.031003265	0.92409288	1.3952836	-0.14096436	0.84150708	1.0869215	-0.39382589	0.88109803	1.0104028	0.10460423	0.90030594	0.85873275	-0.46468548	1.0816125	0.86469117	0.14637953
379	1.512	1.3140348	0.060436115	-0.32511415	0.8654492	0.039032314	-0.092324844	1.1841412	0.09290369	-0.34689551	0.7268011	0.074118989	-0.080932933	1.2052149	0.11053845	-0.26366252	0.76592939	0.091751056	-0.16166694	1.1219203	0.058145702	-0.3033182	0.67820258	0.060109353	-0.13499309	1.2018864	0.47897538	-0.32550776	0.95443819	0.39096209	-0.028829443	1.2293577	0.45218046	-0.21041905	0.98690277	0.40026152	-0.1542495	0.98406257	0.78861825	-0.33333729	0.91906007	0.80346103	0.048623001	1.0310578	0.88365358	-0.25375525	1.0013952	0.89218752	-0.011470465	0.81922537	0.91242504	-0.1627756	1.0309271	1.3607814	-0.28430222	0.98352822	1.3566779	0.030347112	0.92884964	1.3969128	-0.14136071	0.84429042	1.0900496	-0.39383229	0.88943696	1.011423	0.10566575	0.90069351	0.86155888	-0.46530843	1.0926761	0.86740305	0.1403594
